<svg id="visual" viewBox="0 0 900 600" width="900" height="600" xmlns="http://www.w3.org/2000/svg" xmlns:xlink="http://www.w3.org/1999/xlink" version="1.1"><rect x="0" y="0" width="900" height="600" fill="#ffffff"></rect><path d="M792 600L789.5 591.7C787 583.3 782 566.7 791.5 550C801 533.3 825 516.7 835.2 500C845.3 483.3 841.7 466.7 835.7 450C829.7 433.3 821.3 416.7 814.8 400C808.3 383.3 803.7 366.7 797.7 350C791.7 333.3 784.3 316.7 782.7 300C781 283.3 785 266.7 791.3 250C797.7 233.3 806.3 216.7 812.5 200C818.7 183.3 822.3 166.7 825.5 150C828.7 133.3 831.3 116.7 825.3 100C819.3 83.3 804.7 66.7 806 50C807.3 33.3 824.7 16.7 833.3 8.3L842 0L900 0L900 8.3C900 16.7 900 33.3 900 50C900 66.7 900 83.3 900 100C900 116.7 900 133.3 900 150C900 166.7 900 183.3 900 200C900 216.7 900 233.3 900 250C900 266.7 900 283.3 900 300C900 316.7 900 333.3 900 350C900 366.7 900 383.3 900 400C900 416.7 900 433.3 900 450C900 466.7 900 483.3 900 500C900 516.7 900 533.3 900 550C900 566.7 900 583.3 900 591.7L900 600Z" fill="#000000" stroke-linecap="round" stroke-linejoin="miter"></path></svg>